# xmcd CD database file
#
# Track frame offsets:
#	150
#	15089
#	49385
#	61056
#	74810
#	86238
#	100239
#	144111
#	201741
#	215024
#	251459
#	265113
#
# Disc length: 4230 seconds
#
# Revision: 1
# Processed by: cddbd v1.5.2PL0 Copyright (c) Steve Scherf et al.
# Submitted via: CDex 1.70beta2
#
DISCID=b210840c
DTITLE=Various Artist - Beginner Jazz Sax／Trumpet (Trumpet)
DYEAR=2013
DGENRE=Jazz
TTITLE0=Summertime
TTITLE1=I Get A Kick Out Of You
TTITLE2=Time After Time
TTITLE3=A Night In Tunisia
TTITLE4=Hello，Dolly！
TTITLE5=Autumn Leaves
TTITLE6=Freddie Freeloader
TTITLE7=BeBop
TTITLE8=My Funny Valentine
TTITLE9=Delilah
TTITLE10=St．Louis Blues
TTITLE11=All Blues
EXTD=YEAR: 2013
EXTT0=
EXTT1=
EXTT2=
EXTT3=
EXTT4=
EXTT5=
EXTT6=
EXTT7=
EXTT8=
EXTT9=
EXTT10=
EXTT11=
PLAYORDER=
